<svg version="1.0" xmlns="http://www.w3.org/2000/svg"
 width="512.000000pt" height="512.000000pt" viewBox="0 0 512.000000 512.000000"
 preserveAspectRatio="xMidYMid meet">

<g transform="translate(0.000000,512.000000) scale(0.100000,-0.100000)"
fill="#000000" stroke="none">
<path d="M1123 3612 c-111 -39 -192 -139 -213 -261 -7 -45 -10 -305 -8 -821
l3 -755 24 -59 c28 -71 95 -141 166 -176 l50 -25 390 0 c373 0 394 1 480 23
50 12 132 43 184 68 218 106 351 323 351 574 0 178 -59 321 -180 440 l-76 75
37 52 c112 161 113 425 1 598 -55 85 -140 159 -236 204 -149 72 -169 74 -566
78 -323 3 -360 1 -407 -15z m802 -116 c109 -32 186 -75 256 -145 94 -95 114
-147 114 -311 0 -117 -2 -128 -27 -177 -38 -70 -76 -112 -137 -148 -28 -16
-51 -32 -51 -35 0 -3 35 -23 78 -44 160 -82 253 -211 274 -384 30 -232 -81
-445 -282 -544 -152 -75 -278 -91 -675 -86 -289 3 -291 3 -340 29 -35 18 -59
39 -80 74 l-30 48 -3 781 c-2 694 -1 786 13 823 24 61 52 92 109 120 l51 24
335 -4 c279 -4 345 -7 395 -21z"/>
<path d="M1420 2979 l0 -191 179 4 179 3 43 30 c57 41 84 94 84 170 0 76 -28
125 -89 154 -38 19 -61 21 -219 21 l-177 0 0 -191z m352 64 c20 -18 24 -73 8
-103 -15 -27 -64 -40 -156 -40 l-84 0 0 80 0 80 107 0 c85 0 110 -3 125 -17z"/>
<path d="M1427 2473 c-4 -3 -7 -118 -7 -255 l0 -248 198 0 c242 0 284 9 353
79 56 55 73 108 66 198 -9 115 -76 191 -194 219 -60 14 -404 20 -416 7z m431
-132 c21 -11 44 -32 52 -47 22 -41 19 -117 -6 -151 -36 -49 -66 -57 -221 -61
l-143 -4 0 141 0 141 140 0 c119 0 147 -3 178 -19z"/>
<path d="M2690 3613 c-61 -22 -142 -104 -163 -167 -53 -154 14 -313 157 -377
42 -18 75 -22 203 -27 l152 -5 3 -651 3 -651 26 -55 c53 -113 153 -182 274
-188 131 -7 240 60 302 186 l28 57 3 651 3 651 152 5 c128 5 161 9 203 27 108
48 174 147 174 262 0 94 -24 154 -84 215 -88 87 -58 84 -770 83 -539 0 -627
-3 -666 -16z m1306 -112 c77 -35 116 -117 100 -206 -7 -37 -53 -97 -90 -118
-14 -8 -93 -14 -231 -17 l-210 -5 -5 -711 -5 -711 -29 -41 c-32 -47 -112 -92
-163 -92 -68 0 -145 49 -181 115 -15 27 -18 103 -22 735 l-5 705 -205 5 c-219
5 -238 10 -287 62 -61 66 -55 188 14 250 52 47 51 47 683 47 560 1 597 -1 636
-18z"/>
</g>
</svg>
